<?xml version="1.0" encoding="UTF-8" standalone="no"?>
<svg xmlns="http://www.w3.org/2000/svg" xmlns:xlink="http://www.w3.org/1999/xlink" style="isolation:isolate" viewBox="0 0 50 50" width="50pt" height="50pt">
	<path d=" M 41.09 23.97 L 24.09 42.03 C 24.07 42.05 24.06 42.06 24.04 42.08 C 23.3 42.79 22.47 43.41 21.58 43.93 C 20.61 44.51 19.59 45 18.53 45.4 C 18.48 45.42 18.44 45.43 18.39 45.45 L 7.39 48.45 C 7.39 48.45 7.39 48.45 7.38 48.45 C 6.82 48.6 6.23 48.68 5.65 48.69 C 5.03 48.69 4.41 48.59 3.83 48.37 C 3.27 48.15 2.75 47.81 2.33 47.37 C 1.92 46.92 1.61 46.4 1.42 45.83 C 1.23 45.25 1.13 44.65 1.14 44.04 C 1.15 43.2 1.3 42.37 1.56 41.58 L 3.54 33.64 C 3.55 33.6 3.56 33.56 3.58 33.53 C 4.5 30.76 5.96 28.21 7.87 26.02 C 7.9 25.98 7.94 25.94 7.97 25.91 L 26.03 8.91 L 41.09 23.97 Z  M 36.91 24.03 L 21.94 39.94 C 21.37 40.48 20.74 40.95 20.06 41.34 C 19.26 41.83 18.41 42.24 17.54 42.57 L 6.61 45.55 C 6.28 45.64 5.95 45.68 5.61 45.69 C 5.37 45.69 5.13 45.65 4.9 45.56 C 4.76 45.51 4.63 45.42 4.52 45.31 C 4.41 45.19 4.32 45.04 4.26 44.88 C 4.18 44.62 4.14 44.35 4.14 44.08 C 4.15 43.54 4.24 43 4.42 42.49 C 4.43 42.45 4.44 42.4 4.46 42.36 L 6.44 34.42 C 7.23 32.08 8.47 29.91 10.08 28.04 L 25.97 13.09 L 36.91 24.03 Z " fill-rule="evenodd" fill="rgb(0,0,0)" />
	<path d=" M 45.05 4.93 C 46.11 5.96 46.97 7.17 47.62 8.5 C 48.2 9.72 48.5 11.05 48.5 12.4 C 48.48 14 48.07 15.58 47.3 16.99 C 46.44 18.55 45.32 19.94 44 21.12 C 43.71 21.38 43.34 21.51 42.96 21.5 C 42.57 21.49 42.21 21.33 41.94 21.06 L 28.94 8.06 C 28.66 7.78 28.51 7.41 28.5 7.02 C 28.49 6.63 28.64 6.25 28.91 5.97 C 30.13 4.68 31.55 3.59 33.12 2.75 C 34.53 2 36.09 1.6 37.68 1.58 C 39.01 1.58 40.33 1.88 41.53 2.44 C 42.84 3.07 44.03 3.91 45.05 4.93 Z  M 42.95 7.07 C 43.76 7.86 44.42 8.78 44.91 9.8 C 45.29 10.61 45.5 11.49 45.5 12.38 C 45.49 13.49 45.2 14.58 44.67 15.55 C 44.21 16.39 43.65 17.17 43.01 17.88 L 32.15 7.02 C 32.88 6.4 33.68 5.85 34.53 5.39 C 35.51 4.88 36.59 4.6 37.69 4.58 C 38.58 4.59 39.45 4.78 40.25 5.16 C 41.25 5.63 42.16 6.28 42.95 7.07 Z " fill-rule="evenodd" fill="rgb(0,0,0)" />
</svg>
