<?xml version="1.0" encoding="iso-8859-1"?>
<svg version="1.1" id="Capa_1" xmlns="http://www.w3.org/2000/svg" xmlns:xlink="http://www.w3.org/1999/xlink" x="0px" y="0px" viewBox="0 0 100 100" xml:space="preserve">
	<path d=" M 49 61.5 C 48.07 61.5 47.18 61.87 46.53 62.53 C 45.87 63.18 45.5 64.07 45.5 65 C 45.5 65.93 45.87 66.82 46.53 67.47 C 47.18 68.13 48.07 68.5 49 68.5 L 92 68.5 C 92.93 68.5 93.82 68.13 94.47 67.47 C 95.13 66.82 95.5 65.93 95.5 65 C 95.5 64.07 95.13 63.18 94.47 62.53 C 93.82 61.87 92.93 61.5 92 61.5 L 49 61.5 Z " fill="rgb(0,0,0)" />
	<path d=" M 88.5 65 C 88.5 65.93 88.87 66.82 89.53 67.47 C 90.18 68.13 91.07 68.5 92 68.5 C 92.93 68.5 93.82 68.13 94.47 67.47 C 95.13 66.82 95.5 65.93 95.5 65 L 95.5 10 C 95.5 9.07 95.13 8.18 94.47 7.53 C 93.82 6.87 92.93 6.5 92 6.5 C 91.07 6.5 90.18 6.87 89.53 7.53 C 88.87 8.18 88.5 9.07 88.5 10 L 88.5 65 Z " fill="rgb(0,0,0)" />
	<path d=" M 92.24 13.49 C 93.16 13.43 94.03 13 94.64 12.3 C 95.25 11.6 95.56 10.69 95.49 9.76 C 95.43 8.84 95 7.97 94.3 7.36 C 93.6 6.75 92.69 6.44 91.76 6.51 L 18.76 11.51 C 17.84 11.57 16.97 12 16.36 12.7 C 15.75 13.4 15.44 14.31 15.51 15.24 C 15.57 16.16 16 17.03 16.7 17.64 C 17.4 18.25 18.31 18.56 19.24 18.49 L 92.24 13.49 Z " fill="rgb(0,0,0)" />
	<path d=" M 22.42 15.74 C 22.62 14.84 22.45 13.89 21.94 13.11 C 21.44 12.33 20.65 11.78 19.74 11.58 C 18.84 11.38 17.89 11.55 17.11 12.06 C 16.33 12.56 15.78 13.35 15.58 14.26 L 5.58 60.26 C 5.38 61.16 5.55 62.11 6.06 62.89 C 6.56 63.67 7.35 64.22 8.26 64.42 C 9.16 64.62 10.11 64.45 10.89 63.94 C 11.67 63.44 12.22 62.65 12.42 61.74 L 22.42 15.74 Z " fill="rgb(0,0,0)" />
	<path d=" M 9 57.5 C 8.07 57.5 7.18 57.87 6.53 58.53 C 5.87 59.18 5.5 60.07 5.5 61 C 5.5 61.93 5.87 62.82 6.53 63.47 C 7.18 64.13 8.07 64.5 9 64.5 L 29 64.5 C 29.93 64.5 30.82 64.13 31.47 63.47 C 32.13 62.82 32.5 61.93 32.5 61 C 32.5 60.07 32.13 59.18 31.47 58.53 C 30.82 57.87 29.93 57.5 29 57.5 L 9 57.5 Z " fill="rgb(0,0,0)" />
	<path d=" M 32.41 61.77 C 32.62 60.87 32.45 59.92 31.96 59.13 C 31.46 58.35 30.68 57.79 29.77 57.59 C 28.87 57.38 27.92 57.55 27.13 58.04 C 26.35 58.54 25.79 59.32 25.59 60.23 L 18.59 91.23 C 18.38 92.13 18.55 93.08 19.04 93.87 C 19.54 94.65 20.32 95.21 21.23 95.41 C 22.13 95.62 23.08 95.45 23.87 94.96 C 24.65 94.46 25.21 93.68 25.41 92.77 L 32.41 61.77 Z " fill="rgb(0,0,0)" />
	<path d=" M 19.53 89.53 C 18.87 90.18 18.5 91.07 18.5 92 C 18.5 92.93 18.87 93.82 19.53 94.47 C 20.18 95.13 21.07 95.5 22 95.5 C 22.93 95.5 23.82 95.13 24.47 94.47 L 51.47 67.47 C 52.13 66.82 52.5 65.93 52.5 65 C 52.5 64.07 52.13 63.18 51.47 62.53 C 50.82 61.87 49.93 61.5 49 61.5 C 48.07 61.5 47.18 61.87 46.53 62.53 L 19.53 89.53 Z " fill="rgb(0,0,0)" />
	<path d=" M 75 42.5 C 75.93 42.5 76.82 42.87 77.47 43.53 C 78.13 44.18 78.5 45.07 78.5 46 C 78.5 46.93 78.13 47.82 77.47 48.47 C 76.82 49.13 75.93 49.5 75 49.5 L 48 49.5 C 47.07 49.5 46.18 49.13 45.53 48.47 C 44.87 47.82 44.5 46.93 44.5 46 C 44.5 45.07 44.87 44.18 45.53 43.53 C 46.18 42.87 47.07 42.5 48 42.5 L 75 42.5 Z " fill="rgb(0,0,0)" />
	<path d=" M 75 26.5 C 75.93 26.5 76.82 26.87 77.47 27.53 C 78.13 28.18 78.5 29.07 78.5 30 C 78.5 30.93 78.13 31.82 77.47 32.47 C 76.82 33.13 75.93 33.5 75 33.5 L 48 33.5 C 47.07 33.5 46.18 33.13 45.53 32.47 C 44.87 31.82 44.5 30.93 44.5 30 C 44.5 29.07 44.87 28.18 45.53 27.53 C 46.18 26.87 47.07 26.5 48 26.5 L 75 26.5 Z " fill="rgb(0,0,0)" />
</svg>
