<?xml version="1.0" encoding="UTF-8" standalone="no"?><!-- Generator: Gravit.io --><svg xmlns="http://www.w3.org/2000/svg" xmlns:xlink="http://www.w3.org/1999/xlink" style="isolation:isolate" viewBox="0 0 16 16" width="16pt" height="16pt"><defs><clipPath id="_clipPath_GT1Eu7KolcRRgZDZ5jsw64WFUBO6jH2n"><rect width="16" height="16"/></clipPath></defs><g clip-path="url(#_clipPath_GT1Eu7KolcRRgZDZ5jsw64WFUBO6jH2n)"><rect width="16" height="16" style="fill:rgb(0,0,0)" fill-opacity="0"/><path d=" M 2.453 9.297 C 1.754 9.996 1 13.703 1 14 C 1 14.521 1.406 15 2 15 C 2.297 15 6.004 14.246 6.703 13.547 L 12.425 7.825 L 8.175 3.575 L 2.453 9.297 L 2.453 9.297 Z  M 12 1 C 11.398 1 10.551 1.199 9.859 1.891 L 9.575 2.175 L 13.825 6.425 L 14.109 6.141 C 14.746 5.504 15 4.695 15 4 C 15 2.343 13.656 1 12 1 Z " fill="rgb(255,255,255)"/></g></svg>